<mxfile host="app.diagrams.net" agent="Mozilla/5.0 (Macintosh; Intel Mac OS X 10_15_7) AppleWebKit/537.36 (KHTML, like Gecko) Chrome/136.0.0.0 Safari/537.36" version="27.0.6">
  <diagram name="第 1 页" id="xFOTSa_aTYOprq5RWW8Z">
    <mxGraphModel dx="1234" dy="824" grid="1" gridSize="10" guides="1" tooltips="1" connect="1" arrows="1" fold="1" page="1" pageScale="1" pageWidth="1920" pageHeight="1200" math="0" shadow="0">
      <root>
        <mxCell id="0" />
        <mxCell id="1" parent="0" />
        <mxCell id="3fY3bxxDBCwnVoA5cIG5-7" value="" style="rounded=0;whiteSpace=wrap;html=1;fontSize=12;" vertex="1" parent="1">
          <mxGeometry x="10" y="210" width="1090" height="320" as="geometry" />
        </mxCell>
        <mxCell id="3fY3bxxDBCwnVoA5cIG5-1" value="&lt;font style=&quot;font-size: 14px;&quot;&gt;&lt;b&gt;background.js&lt;/b&gt;&lt;/font&gt;" style="rounded=0;whiteSpace=wrap;html=1;fillColor=#b1ddf0;strokeColor=#10739e;fontSize=12;" vertex="1" parent="1">
          <mxGeometry x="380" y="270" width="170" height="35" as="geometry" />
        </mxCell>
        <mxCell id="3fY3bxxDBCwnVoA5cIG5-2" value="" style="rounded=0;whiteSpace=wrap;html=1;labelPosition=center;verticalLabelPosition=top;align=center;verticalAlign=bottom;fillColor=#fad7ac;strokeColor=#b46504;fontSize=12;" vertex="1" parent="1">
          <mxGeometry x="720" y="305" width="350" height="205" as="geometry" />
        </mxCell>
        <mxCell id="3fY3bxxDBCwnVoA5cIG5-5" style="edgeStyle=orthogonalEdgeStyle;rounded=0;orthogonalLoop=1;jettySize=auto;html=1;exitX=1;exitY=0.5;exitDx=0;exitDy=0;entryX=0;entryY=0.25;entryDx=0;entryDy=0;fontSize=12;" edge="1" parent="1" target="3fY3bxxDBCwnVoA5cIG5-22">
          <mxGeometry relative="1" as="geometry">
            <mxPoint x="200" y="320" as="sourcePoint" />
            <mxPoint x="410" y="335" as="targetPoint" />
          </mxGeometry>
        </mxCell>
        <mxCell id="3fY3bxxDBCwnVoA5cIG5-8" value="发送消息START_SELECT" style="edgeLabel;html=1;align=center;verticalAlign=middle;resizable=0;points=[];fontSize=12;" vertex="1" connectable="0" parent="3fY3bxxDBCwnVoA5cIG5-5">
          <mxGeometry x="-0.2444" relative="1" as="geometry">
            <mxPoint x="16" as="offset" />
          </mxGeometry>
        </mxCell>
        <mxCell id="3fY3bxxDBCwnVoA5cIG5-3" value="&lt;font style=&quot;font-size: 14px;&quot;&gt;&lt;b&gt;popup.js&lt;/b&gt;&lt;/font&gt;" style="rounded=0;whiteSpace=wrap;html=1;fillColor=#dae8fc;strokeColor=#6c8ebf;fontSize=12;" vertex="1" parent="1">
          <mxGeometry x="40" y="270" width="160" height="40" as="geometry" />
        </mxCell>
        <mxCell id="3fY3bxxDBCwnVoA5cIG5-12" value="&lt;b&gt;selection&lt;/b&gt;" style="rounded=0;whiteSpace=wrap;html=1;fillColor=none;fontSize=12;" vertex="1" parent="1">
          <mxGeometry x="745" y="340" width="120" height="20" as="geometry" />
        </mxCell>
        <mxCell id="3fY3bxxDBCwnVoA5cIG5-13" value="生成元素xpath，与sdk保持一致" style="rounded=0;whiteSpace=wrap;html=1;fillColor=none;align=left;spacingLeft=10;spacingRight=10;fontSize=12;" vertex="1" parent="1">
          <mxGeometry x="745" y="430" width="120" height="50" as="geometry" />
        </mxCell>
        <mxCell id="3fY3bxxDBCwnVoA5cIG5-15" value="浮动面板，通过iframe展示配置页面" style="rounded=0;whiteSpace=wrap;html=1;fillColor=none;align=left;spacingLeft=10;spacingRight=10;fontSize=12;" vertex="1" parent="1">
          <mxGeometry x="895" y="360" width="150" height="60" as="geometry" />
        </mxCell>
        <mxCell id="3fY3bxxDBCwnVoA5cIG5-16" value="&lt;span style=&quot;color: rgb(0, 0, 0); font-family: Helvetica; font-style: normal; font-variant-ligatures: normal; font-variant-caps: normal; font-weight: 400; letter-spacing: normal; orphans: 2; text-indent: 0px; text-transform: none; widows: 2; word-spacing: 0px; -webkit-text-stroke-width: 0px; white-space: normal; text-decoration-thickness: initial; text-decoration-style: initial; text-decoration-color: initial; float: none; display: inline !important;&quot;&gt;处理选中元素逻辑&lt;/span&gt;" style="rounded=0;whiteSpace=wrap;html=1;fillColor=none;align=left;spacingLeft=10;fontSize=12;" vertex="1" parent="1">
          <mxGeometry x="745" y="360" width="120" height="30" as="geometry" />
        </mxCell>
        <mxCell id="3fY3bxxDBCwnVoA5cIG5-17" value="&lt;b&gt;xpath&lt;/b&gt;" style="rounded=0;whiteSpace=wrap;html=1;fillColor=none;fontSize=12;" vertex="1" parent="1">
          <mxGeometry x="745" y="410" width="120" height="20" as="geometry" />
        </mxCell>
        <mxCell id="3fY3bxxDBCwnVoA5cIG5-19" value="&lt;b&gt;floatingPanel&lt;/b&gt;" style="rounded=0;whiteSpace=wrap;html=1;fillColor=none;fontSize=12;" vertex="1" parent="1">
          <mxGeometry x="895" y="340" width="150" height="20" as="geometry" />
        </mxCell>
        <mxCell id="3fY3bxxDBCwnVoA5cIG5-20" value="页面入口弹窗" style="rounded=0;whiteSpace=wrap;html=1;fillColor=#dae8fc;strokeColor=#6c8ebf;fontSize=12;" vertex="1" parent="1">
          <mxGeometry x="40" y="310" width="160" height="60" as="geometry" />
        </mxCell>
        <mxCell id="3fY3bxxDBCwnVoA5cIG5-22" value="&lt;span&gt;监听&lt;span style=&quot;text-wrap-mode: nowrap;&quot;&gt;START_SELECT消息，&lt;/span&gt;&lt;/span&gt;加载content.js" style="rounded=0;whiteSpace=wrap;html=1;fillColor=#b1ddf0;strokeColor=#10739e;align=left;spacingLeft=10;spacingRight=10;fontSize=12;" vertex="1" parent="1">
          <mxGeometry x="380" y="305" width="170" height="65" as="geometry" />
        </mxCell>
        <mxCell id="3fY3bxxDBCwnVoA5cIG5-23" value="&lt;font style=&quot;font-size: 14px;&quot;&gt;&lt;b&gt;content.js&lt;/b&gt;&lt;/font&gt;" style="rounded=0;whiteSpace=wrap;html=1;fillColor=#fad7ac;strokeColor=#b46504;fontSize=12;" vertex="1" parent="1">
          <mxGeometry x="720" y="265" width="350" height="40" as="geometry" />
        </mxCell>
        <mxCell id="3fY3bxxDBCwnVoA5cIG5-26" style="edgeStyle=orthogonalEdgeStyle;rounded=0;orthogonalLoop=1;jettySize=auto;html=1;exitX=1;exitY=0.25;exitDx=0;exitDy=0;entryX=-0.003;entryY=0.078;entryDx=0;entryDy=0;entryPerimeter=0;" edge="1" parent="1" source="3fY3bxxDBCwnVoA5cIG5-22" target="3fY3bxxDBCwnVoA5cIG5-2">
          <mxGeometry relative="1" as="geometry" />
        </mxCell>
        <mxCell id="3fY3bxxDBCwnVoA5cIG5-27" value="加载content.js" style="edgeLabel;html=1;align=center;verticalAlign=middle;resizable=0;points=[];fontSize=14;" vertex="1" connectable="0" parent="3fY3bxxDBCwnVoA5cIG5-26">
          <mxGeometry x="-0.0783" relative="1" as="geometry">
            <mxPoint as="offset" />
          </mxGeometry>
        </mxCell>
        <mxCell id="3fY3bxxDBCwnVoA5cIG5-31" value="&lt;font style=&quot;font-size: 16px;&quot;&gt;&lt;b&gt;可视化配置工具&lt;/b&gt;&lt;/font&gt;" style="rounded=0;whiteSpace=wrap;html=1;fontSize=12;" vertex="1" parent="1">
          <mxGeometry x="10" y="170" width="1090" height="40" as="geometry" />
        </mxCell>
      </root>
    </mxGraphModel>
  </diagram>
</mxfile>
